<svg width="90" height="90" viewBox="0 0 90 90" fill="none" xmlns="http://www.w3.org/2000/svg">
<path d="M4.00293 4.45312H85.7634V85.458H4.00293V4.45312Z" fill="url(#paint0_radial_167_573)"/>
<path d="M4.00317 4.45367H85.7636V85.4586H4.00317V4.45367ZM0.287598 89.2423H89.4971V0.669922H0.287598V89.2423ZM58.7186 32.2496C58.7186 31.9404 58.8257 31.7949 59.1651 31.7949H65.0064C65.3101 31.7949 65.453 31.904 65.453 32.2496V62.1194C65.453 62.4286 65.3816 62.5742 65.0064 62.5742H59.2366C58.8615 62.5742 58.7543 62.3923 58.7543 62.083V32.2496H58.7186ZM58.3077 23.6453C58.3077 21.2258 59.9868 19.7888 62.0947 19.7888C64.3634 19.7888 65.8818 21.335 65.8818 23.6453C65.8818 26.1374 64.2919 27.5018 62.0233 27.5018C59.8797 27.52 58.3077 26.1556 58.3077 23.6453ZM41.5876 44.6923C40.5515 40.4902 38.0864 31.3401 37.1575 26.9015H37.0861C36.3001 31.3219 34.3351 38.8166 32.781 44.6923H41.5876ZM31.2626 50.8227L28.333 62.174C28.2616 62.4832 28.1544 62.556 27.7793 62.556H22.3131C21.938 62.556 21.8665 62.4468 21.938 61.9921L32.4952 24.3729C32.6738 23.6998 32.7989 23.0813 32.8703 21.2258C32.8703 20.953 32.9775 20.8438 33.174 20.8438H40.9803C41.2482 20.8438 41.3554 20.9166 41.4268 21.2258L53.2524 62.0648C53.3238 62.3741 53.2524 62.556 52.9487 62.556H46.7858C46.4822 62.556 46.3035 62.4832 46.2321 62.2104L43.1775 50.8227H31.2626Z" fill="#FF7F18"/>
<defs>
<radialGradient id="paint0_radial_167_573" cx="0" cy="0" r="1" gradientUnits="userSpaceOnUse" gradientTransform="translate(30.9575 22.6304) scale(62.1406 61.2673)">
<stop stop-color="#423325" stop-opacity="0.98"/>
<stop offset="1" stop-color="#1C0A00"/>
</radialGradient>
</defs>
</svg>
