<svg width="90" height="90" viewBox="0 0 90 90" fill="none" xmlns="http://www.w3.org/2000/svg">
<path d="M4.07031 4.45312H85.8308V85.458H4.07031V4.45312Z" fill="url(#paint0_radial_167_586)"/>
<path d="M4.07056 4.45367H85.8311V85.4586H4.07056V4.45367ZM0.35498 89.2423H89.5645V0.669922H0.35498V89.2423ZM63.4662 43.3644C65.3597 43.3644 66.0385 43.3644 66.2171 43.2916C66.2171 43.0188 66.2886 42.8369 66.2886 42.6549C66.2886 40.6175 65.324 36.8338 61.4655 36.8338C57.8928 36.8338 56.3744 40.0172 55.9993 43.3826H63.4662V43.3644ZM55.9278 48.5489C55.9993 53.6606 58.3751 57.0987 64.0378 57.0987C66.235 57.0987 68.1285 56.7894 70.0935 55.9344C70.3614 55.8253 70.5401 55.8617 70.5401 56.2073V60.937C70.5401 61.319 70.4329 61.5009 70.1649 61.701C68.2 62.6833 65.7348 63.1381 62.6981 63.1381C52.8911 63.1381 49.2112 55.7525 49.2112 47.5483C49.2112 38.6165 53.7485 31.3037 61.7334 31.3037C69.8434 31.3037 72.6658 38.2345 72.6658 43.8737C72.6658 45.6929 72.5586 47.1663 72.3621 47.894C72.2907 48.2032 72.1835 48.3124 71.8798 48.3851C71.1295 48.4943 68.9502 48.658 65.6812 48.658H55.9457V48.5489H55.9278ZM35.9924 44.6923C34.9563 40.4902 32.4197 31.3401 31.4908 26.9015H31.4193C30.6333 31.3219 28.5969 38.8166 27.0785 44.6923H35.9924ZM25.5602 50.8227L22.6306 62.1376C22.5591 62.4468 22.4519 62.556 22.0768 62.556H16.5928C16.2176 62.556 16.1462 62.4468 16.2176 61.9921L26.7749 24.4093C26.9535 23.7362 27.0785 23.1905 27.15 21.2986C27.15 21.0257 27.2572 20.9166 27.4537 20.9166H35.26C35.5279 20.9166 35.6351 20.9894 35.7065 21.2986L47.5142 62.0648C47.5857 62.3741 47.5142 62.556 47.2105 62.556H41.0834C40.7797 62.556 40.6011 62.4468 40.5296 62.174L37.475 50.8227H25.5602Z" fill="#D8A1FF"/>
<defs>
<radialGradient id="paint0_radial_167_586" cx="0" cy="0" r="1" gradientUnits="userSpaceOnUse" gradientTransform="translate(31.0228 22.6143) scale(62.1407 61.2673)">
<stop stop-color="#442F55" stop-opacity="0.98"/>
<stop offset="1" stop-color="#12002C"/>
</radialGradient>
</defs>
</svg>
